<svg xmlns="http://www.w3.org/2000/svg" width="128" height="128" viewBox="0 0 128 128">
  <defs>
    <linearGradient id="bg" x1="0%" y1="0%" x2="100%" y2="100%">
      <stop offset="0%" style="stop-color:#0a0d12"/>
      <stop offset="100%" style="stop-color:#161d26"/>
    </linearGradient>
    <linearGradient id="accent" x1="0%" y1="0%" x2="100%" y2="100%">
      <stop offset="0%" style="stop-color:#00d4ff"/>
      <stop offset="100%" style="stop-color:#a855f7"/>
    </linearGradient>
  </defs>
  <!-- Background -->
  <rect width="128" height="128" rx="16" fill="url(#bg)"/>
  <!-- Brain/Neural icon -->
  <g transform="translate(24, 24)" fill="none" stroke="url(#accent)" stroke-width="3" stroke-linecap="round" stroke-linejoin="round">
    <!-- Chat bubble -->
    <path d="M10 20 C10 12, 18 6, 40 6 C62 6, 70 12, 70 20 C70 28, 62 34, 40 34 L25 34 L15 44 L18 34 C12 32, 10 26, 10 20Z"/>
    <!-- Neural nodes inside -->
    <circle cx="28" cy="20" r="4" fill="#00d4ff"/>
    <circle cx="40" cy="14" r="3" fill="#a855f7"/>
    <circle cx="52" cy="20" r="4" fill="#00d4ff"/>
    <circle cx="40" cy="26" r="3" fill="#a855f7"/>
    <!-- Connections -->
    <line x1="32" y1="20" x2="37" y2="16"/>
    <line x1="43" y1="16" x2="48" y2="20"/>
    <line x1="48" y1="20" x2="43" y2="24"/>
    <line x1="37" y1="24" x2="32" y2="20"/>
    <!-- AI sparkle -->
    <path d="M58 40 L60 44 L64 42 L60 46 L62 50 L58 48 L54 50 L56 46 L52 42 L56 44 Z" fill="#00d4ff"/>
  </g>
  <!-- Text "AI" -->
  <text x="85" y="105" font-family="Arial, sans-serif" font-size="24" font-weight="bold" fill="#a855f7">AI</text>
</svg>
